<svg id="Layer_1" data-name="Layer 1" xmlns="http://www.w3.org/2000/svg" viewBox="0 0 125 125"><defs><style>.cls-1{fill:#2dbe60;}.cls-2{fill:#504869;}.cls-3{fill:#413a57;}.cls-4{fill:#eaeef2;}.cls-5{fill:#1abbbc;}.cls-6{fill:#0494b7;}.cls-7{fill:#286289;}.cls-8{fill:#ffcf57;}.cls-9{fill:#e75956;}.cls-10{fill:#cc4c4c;}.cls-11{fill:none;stroke:#2cb250;stroke-miterlimit:10;stroke-width:4px;}</style></defs><title>EB_Homepage_Icons</title><path class="cls-1" d="M95,82.79a12.86,12.86,0,1,1-16.26,8.15A12.86,12.86,0,0,1,95,82.79Z"/><path class="cls-2" d="M97,104.71a11.42,11.42,0,0,1-16.6-5.41,21.49,21.49,0,0,1,6.3-1.48l.73-2.21a4,4,0,0,1-.83-2.89,1.45,1.45,0,1,1,.58-2.82c.69-2.06,2-4.55,6.27-3.12s3.73,4.51,3.15,6.25a1.45,1.45,0,1,1-1.3,2.56A4.68,4.68,0,0,1,93,97.34l-.74,2.24A17.32,17.32,0,0,1,97,104.71Z"/><path class="cls-3" d="M86.87,97.27l.55-1.66a3.47,3.47,0,0,0,1.58,1l2.09.69a3.07,3.07,0,0,0,1.91,0C90.17,99.44,87.21,98.11,86.87,97.27Z"/><circle id="shape-802" class="cls-4" cx="92.36" cy="52.67" r="19.76" transform="translate(13.95 124.48) rotate(-72.18)"/><circle id="shape-805" class="cls-5" cx="46.6" cy="32.37" r="19.42" transform="translate(-5.53 9.97) rotate(-11.54)"/><path id="shape-806" class="cls-6" d="M61.73,40.7a17.28,17.28,0,0,1-25.89,5.14,32.49,32.49,0,0,1,7.21-6.6c-.19-1-.43-2.22-.66-3.46a6.1,6.1,0,0,1-3.24-3.2,2.19,2.19,0,1,1-1.33-4.15c-.61-3.23-.76-7.45,6-8.75s8.25,3.19,8.79,5.9a2.19,2.19,0,1,1,.83,4.31h0a2.22,2.22,0,0,1-.65,0,7,7,0,0,1-1.71,4c.24,1.24.48,2.48.68,3.5A26.29,26.29,0,0,1,61.73,40.7Z"/><path id="shape-807" class="cls-7" d="M42.89,38.37c-.16-.81-.33-1.69-.5-2.59a5.21,5.21,0,0,0,2.82.17l3.28-.63A4.64,4.64,0,0,0,51,33.94C48.85,38.8,44,39.23,42.89,38.37Z"/><circle id="shape-808" class="cls-8" cx="38.06" cy="86.87" r="25.19"/><path id="shape-809" class="cls-9" d="M57,98.76a22.36,22.36,0,0,1-33.83,4.86,42,42,0,0,1,9.79-8c-.19-1.33-.41-2.9-.63-4.52a7.9,7.9,0,0,1-4-4.37,2.93,2.93,0,0,1-.66.18,2.85,2.85,0,0,1-.86-5.63H27c-.58-4.22-.47-9.7,8.3-10.92S45.73,75,46.22,78.56a2.85,2.85,0,1,1-.07,5.62,9.14,9.14,0,0,1-2.5,5.08c.23,1.62.46,3.24.64,4.58C48.64,94.64,53.83,96.4,57,98.76Z"/><path id="shape-810" class="cls-10" d="M32.84,94.43c-.14-1.06-.3-2.21-.47-3.39a6.77,6.77,0,0,0,3.64.42l4.29-.59a6,6,0,0,0,3.36-1.62C40.52,95.4,34.16,95.61,32.84,94.43Z"/><line class="cls-11" x1="81.03" y1="49.03" x2="79.18" y2="54.77"/><line class="cls-11" x1="88.6" y1="43.79" x2="84.52" y2="56.49"/><line class="cls-11" x1="93.21" y1="47.78" x2="89.86" y2="58.2"/><line class="cls-11" x1="99.28" y1="47.23" x2="95.2" y2="59.92"/><line class="cls-11" x1="103.3" y1="53.04" x2="100.54" y2="61.64"/></svg>